<svg width="80" height="81" viewBox="0 0 80 81" fill="none" xmlns="http://www.w3.org/2000/svg">
<path d="M30.9829 73.1491C30.9875 73.1584 30.9938 73.1678 30.9985 73.1787C31.0063 73.1944 31.0141 73.21 31.0235 73.2256C31.0797 73.3381 31.1391 73.4506 31.1985 73.5631C31.3657 73.8881 31.6922 74.1194 32.075 74.1522C32.0891 74.1537 32.1032 74.1537 32.1157 74.1537C32.1329 74.1553 32.1516 74.1569 32.1704 74.1569H32.1719C32.2032 74.1569 32.2344 74.1553 32.2641 74.1522C32.2704 74.1522 32.275 74.1522 32.2813 74.1506C32.311 74.1475 32.3422 74.1428 32.3719 74.1366C32.3782 74.135 32.3844 74.135 32.3907 74.1334C32.4204 74.1272 32.45 74.1194 32.4797 74.11C32.4844 74.1084 32.4907 74.1069 32.4954 74.1053C32.5266 74.0959 32.5579 74.0834 32.5875 74.0709C32.5907 74.0694 32.5922 74.0694 32.5954 74.0678C32.7438 74.0053 32.8797 73.9116 32.9907 73.785L33.0422 73.7272C33.0938 73.6678 33.1454 73.61 33.1969 73.5506C33.1985 73.5491 33.1985 73.5475 33.2 73.5459C38.961 67.1022 45.0969 62.7209 50.511 58.8537C52.5157 57.4225 54.4079 56.0709 56.2 54.6803C60.7079 51.1834 65.1985 47.0569 67.5219 40.5959C68.3672 38.2475 68.8813 35.7412 69.0938 32.9319C69.7376 24.3834 67.9704 15.8756 63.9813 8.3303C63.8141 8.01468 63.5047 7.80061 63.1516 7.75686C62.7985 7.71155 62.4454 7.8428 62.2047 8.10686C61.0766 9.34905 59.7907 10.5897 58.2704 11.9037C57.8125 12.2991 57.7625 12.9897 58.1579 13.4459C58.5532 13.9037 59.2438 13.9537 59.7 13.5584C60.825 12.5881 61.8297 11.6506 62.7407 10.7225C66.0454 17.5553 67.486 25.1444 66.9125 32.7678C66.7469 34.9553 66.3876 36.9381 65.8172 38.7959C65.7329 38.7647 65.6469 38.7366 65.561 38.7069C65.4844 38.6803 65.4079 38.6537 65.3297 38.6272C65.136 38.5616 64.9422 38.4991 64.7485 38.4381C64.7126 38.4272 64.675 38.4147 64.6391 38.4022C64.411 38.3319 64.1797 38.2631 63.9501 38.1975C63.8766 38.1772 63.8016 38.1569 63.7282 38.1366C63.5657 38.0912 63.4032 38.0475 63.2407 38.0053C63.1563 37.9834 63.0704 37.9616 62.986 37.9397C62.8235 37.8991 62.661 37.86 62.4969 37.8209C62.4219 37.8037 62.3454 37.785 62.2704 37.7678C62.0375 37.7147 61.8047 37.6647 61.5719 37.6162C61.5329 37.6084 61.4922 37.6006 61.4532 37.5928C61.2547 37.5522 61.0579 37.5147 60.8594 37.4772C60.775 37.4615 60.6922 37.4475 60.6079 37.4319C60.4501 37.4037 60.2922 37.3772 60.1329 37.3506C60.0454 37.3365 59.9579 37.3225 59.8719 37.3084C59.7016 37.2819 59.5329 37.2569 59.3625 37.2319C59.2938 37.2225 59.225 37.2115 59.1563 37.2022C58.925 37.1694 58.6922 37.1397 58.461 37.1115C58.3938 37.1037 58.3251 37.0959 58.2579 37.0881C58.0876 37.0678 57.9188 37.0491 57.75 37.0319C57.6625 37.0225 57.5751 37.0147 57.4875 37.0053C57.3329 36.9897 57.1797 36.9772 57.025 36.9631C56.9407 36.9553 56.8563 36.9491 56.7719 36.9412C56.5875 36.9272 56.4016 36.9131 56.2188 36.9006C56.1704 36.8975 56.1219 36.8928 56.0735 36.8897C55.8469 36.8756 55.6219 36.8631 55.3969 36.8522C55.3188 36.8491 55.2407 36.8459 55.1625 36.8428C55.0094 36.8365 54.8547 36.8303 54.7032 36.8256C54.6172 36.8225 54.5313 36.8209 54.4454 36.8178C54.2938 36.8131 54.1438 36.81 53.9938 36.8084C53.9172 36.8069 53.8407 36.8053 53.7641 36.8053C53.5454 36.8022 53.3282 36.8022 53.1125 36.8022C53.0735 36.8022 53.0344 36.8037 52.9954 36.8037C52.8141 36.8053 52.6329 36.8069 52.4547 36.81C52.3766 36.8116 52.2985 36.8131 52.2219 36.8147C52.0797 36.8178 51.9375 36.8209 51.7969 36.8256C51.7172 36.8287 51.6391 36.8303 51.5594 36.8334C51.4079 36.8397 51.2579 36.8459 51.1079 36.8522C51.0485 36.8553 50.9875 36.8569 50.9282 36.86C50.7235 36.8709 50.5219 36.8819 50.3219 36.8959C50.2672 36.899 50.2141 36.9037 50.161 36.9069C50.011 36.9178 49.8625 36.9287 49.7157 36.9397C49.6438 36.9459 49.5735 36.9506 49.5032 36.9569C49.3704 36.9678 49.2391 36.9803 49.1079 36.9928C49.0407 36.9991 48.975 37.0053 48.9094 37.0116C48.7516 37.0272 48.5969 37.0428 48.4438 37.06C48.4094 37.0631 48.3751 37.0678 48.3422 37.0709C48.1579 37.0912 47.9766 37.1147 47.7985 37.1366C47.7438 37.1428 47.6922 37.1506 47.6391 37.1584C47.5563 37.1694 47.4735 37.1803 47.3922 37.1912C47.3954 37.1881 47.3985 37.185 47.4016 37.1819C47.711 36.8741 48.0266 36.5694 48.3454 36.2662C48.4438 36.174 48.5422 36.0834 48.6407 35.9912C48.8688 35.7787 49.0985 35.5678 49.3297 35.36C49.4454 35.2569 49.561 35.1537 49.6782 35.0506C49.9094 34.8459 50.1438 34.6428 50.3813 34.4412C50.4875 34.3506 50.5938 34.2584 50.7016 34.1694C51.0422 33.8834 51.386 33.6006 51.736 33.3225C52.0641 33.0616 52.3969 32.8022 52.725 32.5522C56.1719 29.9303 58.8704 27.1866 60.7454 24.3975C61.0829 23.8959 60.9485 23.2162 60.4485 22.8803C59.9469 22.5428 59.2672 22.6772 58.9313 23.1772C57.2672 25.6522 54.875 28.11 51.8204 30.4881C51.811 30.4444 51.8016 30.399 51.7938 30.3537C51.7829 30.3037 51.7735 30.2537 51.7625 30.2022C51.7516 30.1522 51.7407 30.1022 51.7313 30.0506C51.7204 29.9975 51.7079 29.9444 51.6969 29.8897C51.686 29.8381 51.6735 29.7866 51.6626 29.7334C51.6501 29.6787 51.6375 29.6241 51.625 29.5678C51.6125 29.5147 51.6 29.46 51.5875 29.4053C51.575 29.3491 51.561 29.2944 51.5485 29.2366C51.5344 29.1803 51.5204 29.1225 51.5079 29.0662C51.4938 29.01 51.4813 28.9537 51.4672 28.8959C51.4516 28.835 51.436 28.7725 51.4204 28.71C51.4032 28.6428 51.386 28.5756 51.3688 28.5084C51.3422 28.4069 51.3157 28.3053 51.2875 28.2006C51.2719 28.1428 51.2563 28.085 51.2407 28.0272C51.2235 27.9631 51.2063 27.9006 51.1875 27.835C51.1704 27.7756 51.1532 27.7162 51.1375 27.6569C51.1188 27.5928 51.1016 27.5287 51.0829 27.4647C51.0657 27.4037 51.0469 27.3412 51.0282 27.2787C51.0094 27.2147 50.9907 27.1522 50.9704 27.0881C50.9516 27.0256 50.9313 26.9615 50.9125 26.899C50.8922 26.835 50.8719 26.7709 50.8516 26.7053C50.8313 26.6412 50.811 26.5787 50.7907 26.5147C50.7704 26.4491 50.7485 26.385 50.7266 26.3194C50.7047 26.2553 50.6829 26.1897 50.661 26.1256C50.6391 26.06 50.6172 25.9944 50.5938 25.9287C50.5719 25.8631 50.5485 25.7991 50.525 25.7334C50.5016 25.6678 50.4782 25.6006 50.4532 25.5334C50.4297 25.4694 50.4063 25.4037 50.3829 25.3381C50.3579 25.2709 50.3329 25.2022 50.3063 25.135C50.2813 25.0709 50.2579 25.0069 50.2329 24.9412C50.2063 24.8725 50.1797 24.8037 50.1516 24.735C50.1266 24.6709 50.1016 24.6069 50.0751 24.5428C50.0469 24.4725 50.0172 24.4022 49.9876 24.3319C49.961 24.2694 49.936 24.2069 49.9094 24.1444C49.8782 24.0709 49.8469 23.9975 49.8141 23.9241C49.7875 23.8647 49.7626 23.8053 49.736 23.7444C49.7001 23.6631 49.6625 23.5819 49.6266 23.5006C49.6032 23.449 49.5797 23.3975 49.5563 23.3459C49.4954 23.2147 49.4344 23.085 49.3704 22.9537C49.3516 22.9162 49.3329 22.8787 49.3157 22.8428C49.2688 22.7475 49.2219 22.6537 49.1735 22.5584C49.1469 22.5069 49.1204 22.4553 49.0922 22.4037C49.0516 22.324 49.0094 22.2444 48.9672 22.1662C48.9376 22.11 48.9063 22.0553 48.8766 21.9991C48.8438 21.9397 48.8125 21.8803 48.7797 21.8225C49.2157 21.5084 49.6516 21.1959 50.086 20.8834C51.2188 20.0694 52.3907 19.2287 53.525 18.3975C54.0125 18.0397 54.1172 17.3553 53.7594 16.8694C53.4016 16.3819 52.7172 16.2772 52.2313 16.635C51.1063 17.46 49.9391 18.2975 48.811 19.1084C48.1047 19.6162 47.3954 20.1241 46.6891 20.6366C41.6797 24.2631 36.4594 28.2162 32.5172 33.1522C30.661 35.4756 29.2469 37.81 28.1938 40.2912C28.1938 40.2912 28.1938 40.2912 28.1938 40.2928C27.036 43.0178 26.3329 45.9334 26.1047 48.9584C25.736 53.8662 26.1625 58.7647 27.3485 63.4756C25.6172 61.1975 23.8735 59.1491 22.2329 57.2241C16.3266 50.2912 11.6625 44.8147 13.3172 35.1756C14.325 29.3084 16.8188 23.8428 20.561 19.2725C22.6579 22.8287 25.1672 25.8147 28.0235 29.2116C28.4813 29.7569 28.95 30.3131 29.4266 30.885C29.8141 31.3491 30.5032 31.4116 30.9672 31.0241C31.4313 30.6366 31.4938 29.9475 31.1063 29.4834C30.6282 28.91 30.1579 28.3506 29.6985 27.8037C26.561 24.0694 23.85 20.8444 21.7125 16.8584C21.5438 16.5444 21.2329 16.3319 20.8797 16.2897C20.525 16.2475 20.1735 16.3803 19.936 16.6459C15.361 21.7444 12.3266 28.0256 11.1625 34.8069C9.33442 45.4553 14.5407 51.5662 20.5688 58.6428C23.9532 62.6428 27.8032 67.1616 30.9829 73.1491ZM55.3 52.61C55.2219 52.5881 55.1422 52.5678 55.0641 52.5475C54.9938 52.5287 54.9235 52.51 54.8547 52.4912C54.7594 52.4662 54.6625 52.4444 54.5672 52.4209C54.5016 52.4053 54.4375 52.3897 54.3719 52.3741C54.2626 52.3491 54.1547 52.3256 54.0454 52.3022C53.9922 52.2912 53.9391 52.2787 53.886 52.2678C53.561 52.2006 53.2329 52.1412 52.9047 52.0881C52.85 52.0787 52.7969 52.0725 52.7422 52.0631C52.6313 52.0459 52.5219 52.0287 52.411 52.0131C52.3469 52.0037 52.2813 51.9959 52.2172 51.9881C52.1172 51.9741 52.0172 51.9616 51.9172 51.9491C51.8485 51.9412 51.7782 51.9334 51.7094 51.9256C51.6141 51.9147 51.5188 51.9037 51.4219 51.8928C51.35 51.885 51.2782 51.8787 51.2047 51.8725C51.1125 51.8631 51.0188 51.8537 50.9266 51.8459C50.8516 51.8397 50.7782 51.8334 50.7032 51.8287C50.6125 51.8209 50.5219 51.8147 50.4313 51.8084C50.3563 51.8037 50.2813 51.7991 50.2063 51.7944C50.1157 51.7881 50.0266 51.7834 49.936 51.7787C49.861 51.7741 49.7844 51.7709 49.7094 51.7678C49.6204 51.7631 49.5313 51.76 49.4438 51.7569C49.3672 51.7537 49.2922 51.7522 49.2157 51.7491C49.1282 51.7459 49.0391 51.7444 48.9516 51.7412C48.875 51.7397 48.8 51.7381 48.7235 51.7381C48.636 51.7366 48.55 51.735 48.4626 51.735C48.386 51.735 48.311 51.735 48.2344 51.735C48.1485 51.735 48.0625 51.735 47.9766 51.735C47.9 51.735 47.8235 51.7366 47.7485 51.7381C47.6641 51.7397 47.5782 51.7412 47.4938 51.7428C47.4172 51.7444 47.3422 51.7459 47.2657 51.7475C47.1813 51.7491 47.0969 51.7522 47.0141 51.7553C46.9376 51.7584 46.861 51.76 46.786 51.7631C46.7032 51.7662 46.6204 51.7694 46.5391 51.7741C46.4626 51.7772 46.3876 51.7819 46.3125 51.785C46.2297 51.7897 46.1485 51.7944 46.0672 51.7991C45.9922 51.8037 45.9172 51.8084 45.8438 51.8131C45.7626 51.8178 45.6813 51.8241 45.6016 51.8287C45.5266 51.8334 45.4532 51.8397 45.3797 51.8444C45.3 51.8506 45.2204 51.8569 45.1407 51.8631C45.0672 51.8694 44.9938 51.8756 44.9204 51.8819C44.8407 51.8881 44.7626 51.8959 44.6844 51.9037C44.6126 51.91 44.5391 51.9178 44.4672 51.9241C44.3891 51.9319 44.3125 51.9397 44.2344 51.9475C44.1626 51.9553 44.0907 51.9616 44.0204 51.9694C43.9438 51.9772 43.8672 51.9866 43.7907 51.9944C43.7204 52.0022 43.6516 52.01 43.5813 52.0178C43.5047 52.0272 43.4282 52.0366 43.3516 52.0459C43.2844 52.0537 43.2157 52.0631 43.1485 52.0709C43.0719 52.0803 42.9969 52.0912 42.9219 52.1006C42.8547 52.11 42.7891 52.1178 42.7219 52.1272C42.6485 52.1366 42.575 52.1475 42.5032 52.1584C42.4375 52.1678 42.3719 52.1772 42.3063 52.1866C42.2313 52.1975 42.1594 52.2084 42.0844 52.2194C42.0235 52.2287 41.961 52.2381 41.9 52.2475C41.8204 52.26 41.7407 52.2725 41.6626 52.285C41.6094 52.2928 41.5563 52.3022 41.5032 52.31C41.4141 52.3241 41.3266 52.3397 41.2391 52.3537C41.1969 52.36 41.1547 52.3678 41.1141 52.3741C40.986 52.3959 40.8594 52.4178 40.736 52.4412C40.661 52.4553 40.5907 52.4756 40.5235 52.5022C40.0516 52.6912 39.7594 53.1912 39.8532 53.7116C39.9141 54.0459 40.1204 54.3178 40.3954 54.4709C40.6094 54.5912 40.8641 54.6397 41.1235 54.5944C41.3079 54.5616 41.4969 54.5287 41.6891 54.4959C41.7188 54.4912 41.7485 54.4865 41.7797 54.4803C41.9672 54.4491 42.1579 54.4194 42.3516 54.3897C42.3829 54.385 42.4157 54.3803 42.4485 54.3756C42.6501 54.3459 42.8547 54.3162 43.0625 54.2881C43.0719 54.2866 43.0829 54.285 43.0922 54.2834C43.3 54.2553 43.511 54.2287 43.725 54.2022C43.7454 54.1991 43.7657 54.1975 43.786 54.1944C43.9985 54.1694 44.2157 54.1444 44.4329 54.1225C44.4657 54.1194 44.4985 54.1162 44.5313 54.1131C44.7516 54.0912 44.9735 54.0694 45.1985 54.0506C45.2188 54.049 45.2391 54.0475 45.2594 54.0459C45.4891 54.0272 45.7204 54.01 45.9547 53.9944C45.961 53.9944 45.9672 53.9928 45.9735 53.9928C46.2047 53.9772 46.4391 53.9647 46.675 53.9553C46.7079 53.9537 46.7422 53.9522 46.775 53.9506C47.0047 53.9412 47.2375 53.9334 47.4704 53.9272C47.5016 53.9272 47.5313 53.9256 47.5625 53.9256C48.0438 53.9162 48.5297 53.9162 49.0188 53.9287C49.05 53.9303 49.0829 53.9303 49.1141 53.9303C49.3485 53.9366 49.5844 53.9459 49.8204 53.9584C49.8579 53.96 49.8969 53.9631 49.9344 53.9647C50.175 53.9787 50.4141 53.9944 50.6547 54.0147C50.6704 54.0162 50.686 54.0178 50.7016 54.0194C50.936 54.0397 51.1704 54.0631 51.4047 54.0897C51.4329 54.0928 51.4594 54.0959 51.4875 54.0991C51.7219 54.1256 51.9547 54.1569 52.1891 54.1912C52.2313 54.1975 52.2735 54.2037 52.3157 54.21C52.5469 54.2444 52.7782 54.2834 53.0079 54.3256C53.0188 54.3272 53.0297 54.3303 53.0391 54.3319C51.8235 55.2319 50.5563 56.1366 49.2422 57.0756C44.0016 60.8194 38.0954 65.0397 32.4329 71.1475C29.1407 64.3272 27.7032 56.7428 28.2766 49.135C28.4579 46.7256 28.9657 44.3928 29.7891 42.1866C29.8438 42.2131 29.8985 42.2397 29.9516 42.2662C29.9813 42.2803 30.011 42.2959 30.0407 42.31C30.0844 42.3319 30.1266 42.3537 30.1688 42.3756C30.236 42.41 30.3047 42.4459 30.3704 42.4819C30.3766 42.485 30.3844 42.4897 30.3907 42.4928C30.4438 42.5209 30.4954 42.5506 30.5485 42.5787C30.6172 42.6178 30.6875 42.6553 30.7547 42.6944C30.8079 42.724 30.8594 42.7553 30.9125 42.7865C30.9797 42.8256 31.0454 42.8662 31.111 42.9053C31.1563 42.9334 31.2 42.96 31.2454 42.9881C31.2547 42.9944 31.2641 43.0006 31.2735 43.0053C31.3344 43.0444 31.3954 43.0819 31.4547 43.1209C31.4938 43.1459 31.5329 43.1725 31.5719 43.1975C31.5829 43.2053 31.5954 43.2131 31.6063 43.2209C31.6672 43.2615 31.7266 43.3022 31.7875 43.3444C31.8344 43.3756 31.8797 43.4084 31.925 43.4397C31.9875 43.4834 32.0485 43.5287 32.1094 43.5741C32.1516 43.6053 32.1954 43.6366 32.2375 43.6678C32.3 43.7147 32.3625 43.7631 32.425 43.8116C32.4625 43.8412 32.5016 43.8709 32.5391 43.9006C32.6079 43.9553 32.6735 44.01 32.7407 44.0647C32.7625 44.0834 32.7844 44.1006 32.8063 44.1178C32.8344 44.1412 32.861 44.1647 32.8891 44.1881C32.95 44.2397 33.0094 44.2897 33.0688 44.3412C33.1032 44.3709 33.136 44.4006 33.1704 44.4319C33.225 44.4803 33.2782 44.5287 33.3313 44.5772C33.3625 44.6053 33.3922 44.6334 33.4235 44.6615C33.4344 44.6709 33.4438 44.6803 33.4547 44.6912C33.5 44.7334 33.5454 44.7756 33.5891 44.8194C33.6125 44.8428 33.636 44.8647 33.6594 44.8881C33.6813 44.91 33.7032 44.9319 33.725 44.9537C33.7672 44.9959 33.8094 45.0366 33.85 45.0787C33.861 45.0897 33.8735 45.1022 33.8844 45.1131C33.9141 45.1428 33.9438 45.174 33.9719 45.2037C34.0188 45.2522 34.0657 45.3006 34.111 45.3506C34.1422 45.385 34.1735 45.4194 34.2063 45.4537C34.25 45.5022 34.2938 45.5491 34.3375 45.5975C34.3688 45.6319 34.3985 45.6662 34.4297 45.7006C34.4719 45.7475 34.5125 45.7959 34.5532 45.8428C34.5829 45.8772 34.6125 45.9115 34.6407 45.9459C34.6813 45.9944 34.7204 46.0412 34.7594 46.0881C34.7875 46.1225 34.8141 46.1553 34.8422 46.1897C34.8813 46.2381 34.9188 46.2866 34.9563 46.3334C34.9813 46.3662 35.0079 46.3991 35.0329 46.4319C35.0704 46.4803 35.1079 46.5303 35.1438 46.5787C35.1672 46.61 35.1907 46.6412 35.2141 46.6725C35.2516 46.724 35.2891 46.7756 35.3266 46.8272C35.3438 46.8522 35.3625 46.8756 35.3782 46.9006C35.3891 46.9147 35.3985 46.9303 35.4094 46.9444C35.4422 46.9912 35.4735 47.0366 35.5047 47.0819C35.5125 47.0928 35.5204 47.1053 35.5282 47.1162C35.5454 47.1412 35.5625 47.1662 35.5782 47.1912C35.611 47.2397 35.6438 47.2881 35.675 47.3365C35.6938 47.3647 35.711 47.3912 35.7282 47.4194C35.7594 47.4678 35.7891 47.5147 35.8204 47.5631C35.8344 47.5866 35.85 47.61 35.8641 47.6334C35.8719 47.6459 35.8782 47.6569 35.886 47.6694C35.9125 47.7115 35.9375 47.7537 35.9625 47.7944C35.9704 47.8084 35.9797 47.8225 35.9876 47.8366C36.0016 47.86 36.0141 47.8819 36.0282 47.9053C36.0547 47.9506 36.0829 47.9959 36.1079 48.0412C36.125 48.0694 36.1407 48.0975 36.1563 48.1272C36.1797 48.1694 36.2032 48.2116 36.2266 48.2522C36.2422 48.2819 36.2579 48.31 36.275 48.3397C36.2969 48.3787 36.3188 48.4178 36.3391 48.4569C36.3547 48.485 36.3688 48.5131 36.3844 48.5412C36.3954 48.5616 36.4047 48.5819 36.4157 48.6022C36.3875 48.6584 36.3594 48.7162 36.3297 48.7741C36.2735 48.8866 36.2172 49.0006 36.161 49.1147C36.125 49.1881 36.0875 49.2616 36.0516 49.335C36.0172 49.4037 35.986 49.4756 35.9516 49.5444C35.8969 49.6569 35.8438 49.7709 35.7907 49.8834C35.7219 50.0287 35.6547 50.1756 35.5875 50.3209C35.536 50.4334 35.4844 50.5475 35.4329 50.66C35.3657 50.8084 35.3 50.9584 35.2344 51.1069C35.186 51.2178 35.136 51.3303 35.0875 51.4428C35.0219 51.5975 34.9563 51.7522 34.8922 51.9069C34.8469 52.0147 34.8016 52.1241 34.7563 52.2319C34.7532 52.2412 34.7485 52.2491 34.7454 52.2569C34.736 52.2803 34.725 52.3037 34.7157 52.3272C34.6625 52.4584 34.611 52.5897 34.5594 52.7209C34.5188 52.8225 34.4782 52.9225 34.4391 53.0241C34.4047 53.1131 34.3704 53.2022 34.336 53.2928C34.3 53.3866 34.2641 53.4819 34.2282 53.5756C34.1969 53.6584 34.1657 53.7412 34.1344 53.8225C34.036 54.0897 33.9391 54.3569 33.8438 54.6256C33.7204 54.9787 33.6 55.3334 33.4844 55.6897C33.4438 55.8116 33.4063 55.9366 33.3672 56.0584C33.2922 56.2928 33.2188 56.5256 33.1469 56.7616C33.1016 56.91 33.0594 57.06 33.0157 57.2084C32.9532 57.4194 32.8922 57.6303 32.8329 57.8428C32.7891 58.0022 32.7469 58.16 32.7047 58.3194C32.65 58.5241 32.5954 58.7287 32.5438 58.9334C32.5032 59.0959 32.4625 59.2584 32.4235 59.4209C32.3735 59.6256 32.3251 59.8287 32.2766 60.0334C32.2391 60.1959 32.2016 60.36 32.1657 60.5225C32.1204 60.7287 32.075 60.9366 32.0329 61.1444C32 61.3053 31.9672 61.4662 31.9344 61.6272C31.8922 61.8397 31.8516 62.0522 31.8125 62.2647C31.7829 62.4225 31.7547 62.5787 31.7266 62.7366C31.7141 62.8069 31.7 62.8772 31.6891 62.9475C31.686 62.9694 31.6844 62.9912 31.6813 63.0131C31.6422 63.2475 31.6 63.4819 31.5641 63.7162C31.4719 64.3131 31.8813 64.8725 32.4782 64.9647C33.075 65.0569 33.6344 64.6475 33.7266 64.0506C33.775 63.7397 33.8282 63.4287 33.8829 63.1178C33.9094 62.9647 33.9375 62.8116 33.9657 62.6584C34.0032 62.4584 34.0407 62.2569 34.0797 62.0569C34.111 61.9006 34.1422 61.7444 34.175 61.5881C34.2157 61.3928 34.2579 61.1959 34.3016 61.0006C34.336 60.8428 34.3719 60.6834 34.4094 60.5256C34.4547 60.3319 34.5 60.1397 34.5469 59.9459C34.586 59.7881 34.6235 59.6303 34.6641 59.4725C34.7141 59.2787 34.7657 59.085 34.8172 58.8912C34.8579 58.7366 34.9 58.5834 34.9422 58.4287C34.9985 58.2272 35.0563 58.0272 35.1157 57.8272C35.1579 57.6819 35.1985 57.5381 35.2422 57.3944C35.3094 57.1725 35.3797 56.9522 35.45 56.7319C35.4891 56.61 35.525 56.4881 35.5657 56.3678C35.6735 56.0366 35.786 55.7069 35.9 55.3772C35.9032 55.3678 35.9063 55.36 35.9094 55.3506C36.6579 53.2147 37.5672 51.1162 38.6094 49.1147C38.6141 49.1069 38.6172 49.0991 38.6204 49.0912C38.7125 48.9147 38.8079 48.7397 38.9016 48.5647C38.9719 48.4334 39.0407 48.3006 39.1126 48.1694C39.211 47.9912 39.3125 47.8131 39.4125 47.6366C39.4844 47.5084 39.5563 47.3803 39.6297 47.2522C39.7422 47.0584 39.8563 46.8678 39.9719 46.6756C40.0375 46.5662 40.1016 46.4553 40.1672 46.3459C40.35 46.0459 40.536 45.7475 40.7235 45.4537C40.8813 45.2069 41.0407 44.9631 41.2032 44.7178C41.2547 44.6397 41.3094 44.5616 41.3625 44.4834C41.4735 44.3178 41.5844 44.1537 41.6985 43.9897C41.7641 43.8959 41.8297 43.8037 41.8954 43.71C41.9985 43.5631 42.1032 43.4147 42.2079 43.2678C42.2797 43.1678 42.3532 43.0694 42.425 42.9709C42.5266 42.8319 42.6282 42.6928 42.7329 42.5537C42.8094 42.4522 42.8876 42.3506 42.9641 42.2491C43.0657 42.1147 43.1672 41.9819 43.2719 41.849C43.3516 41.7459 43.4344 41.6428 43.5157 41.5397C43.6188 41.41 43.7204 41.2803 43.8251 41.1522C43.9094 41.049 43.9938 40.9459 44.0782 40.8428C44.1813 40.7162 44.286 40.5912 44.3907 40.4662C44.4782 40.3631 44.5657 40.26 44.6532 40.1569C44.7204 40.0787 44.7876 40.0006 44.8547 39.9225L45.1688 39.8428C45.2969 39.8116 45.4313 39.7787 45.5688 39.7491C45.6141 39.7381 45.6626 39.7287 45.7094 39.7194C45.8047 39.6991 45.8985 39.6787 45.9969 39.6584C46.0563 39.6459 46.1188 39.635 46.1782 39.6225C46.2688 39.6053 46.3579 39.5881 46.4501 39.5709C46.5172 39.5584 46.5876 39.5475 46.6563 39.535C46.7469 39.5194 46.8376 39.5037 46.9297 39.4881C47.0032 39.4756 47.0782 39.4647 47.1532 39.4537C47.2469 39.4397 47.3391 39.4241 47.4344 39.41C47.5125 39.3991 47.5922 39.3881 47.6719 39.3772C47.7672 39.3647 47.8625 39.3506 47.9594 39.3381C48.0422 39.3272 48.1266 39.3178 48.211 39.3069C48.3094 39.2944 48.4079 39.2834 48.5094 39.2709C48.5954 39.2616 48.6829 39.2522 48.7704 39.2428C48.8719 39.2319 48.9751 39.2209 49.0782 39.2116C49.1672 39.2022 49.2594 39.1944 49.35 39.1866C49.4547 39.1772 49.5594 39.1678 49.6657 39.1584C49.7579 39.1506 49.8532 39.1428 49.9469 39.1366C50.0547 39.1287 50.1625 39.1209 50.2719 39.1131C50.3672 39.1069 50.4641 39.1006 50.561 39.0944C50.6719 39.0881 50.7829 39.0819 50.8938 39.0756C50.9922 39.0709 51.0922 39.0647 51.1907 39.06C51.3032 39.0553 51.4172 39.0506 51.5313 39.0459C51.6329 39.0428 51.7329 39.0381 51.836 39.035C51.9516 39.0319 52.0688 39.0287 52.186 39.0256C52.2891 39.0225 52.3907 39.0209 52.4954 39.0194C52.6141 39.0178 52.7329 39.0162 52.8532 39.0147C52.9579 39.0131 53.061 39.0131 53.1657 39.0131C53.286 39.0131 53.4079 39.0131 53.5313 39.0147C53.636 39.0147 53.7422 39.0162 53.8485 39.0178C53.9735 39.0194 54.0985 39.0225 54.2235 39.0256C54.3282 39.0287 54.4344 39.0303 54.5407 39.0334C54.6688 39.0366 54.7985 39.0428 54.9266 39.0475C55.0313 39.0522 55.1344 39.0553 55.2407 39.06C55.3735 39.0662 55.5079 39.0741 55.6422 39.0819C55.7438 39.0881 55.8469 39.0928 55.9485 39.0991C56.0876 39.1084 56.2282 39.1178 56.3688 39.1287C56.4672 39.1366 56.5641 39.1428 56.6626 39.1506C56.8157 39.1631 56.9704 39.1772 57.1235 39.1912C57.2094 39.1991 57.2938 39.2053 57.3797 39.2147C57.5922 39.235 57.8047 39.2584 58.0172 39.2834C58.0454 39.2866 58.0735 39.2897 58.1 39.2928C58.3407 39.3209 58.5829 39.3522 58.8251 39.385C58.8969 39.3944 58.9688 39.4069 59.0407 39.4162C59.211 39.4397 59.3813 39.4647 59.55 39.4912C59.6407 39.5053 59.7329 39.5209 59.8235 39.5366C59.9735 39.5616 60.125 39.585 60.2751 39.6115C60.375 39.6287 60.4735 39.649 60.5735 39.6678C60.7157 39.6944 60.8563 39.7209 60.9985 39.7491C61.1016 39.7694 61.2047 39.7928 61.3094 39.8147C61.4469 39.8428 61.5829 39.8725 61.7204 39.9022C61.8251 39.9256 61.9297 39.9506 62.036 39.9756C62.1704 40.0069 62.3047 40.0381 62.4375 40.0709C62.5438 40.0975 62.6501 40.1256 62.7547 40.1522C62.886 40.1866 63.0172 40.2209 63.1485 40.2569C63.2547 40.2866 63.361 40.3162 63.4672 40.3475C63.5969 40.385 63.7251 40.4225 63.8547 40.4616C63.961 40.4944 64.0657 40.5272 64.1719 40.56C64.3001 40.6006 64.4266 40.6412 64.5532 40.6834C64.6579 40.7178 64.7625 40.7553 64.8672 40.7912C64.9375 40.8162 65.0079 40.8412 65.0782 40.8662C62.9282 46.0365 59.1532 49.5819 55.3 52.61ZM31.3797 38.7334C32.1672 37.31 33.1063 35.9194 34.2157 34.5303C37.736 30.1225 42.4032 26.4756 46.9844 23.1319C47.0407 23.235 47.0954 23.3397 47.1501 23.4428C47.1672 23.4756 47.1829 23.5084 47.2 23.5412C47.2391 23.6162 47.2766 23.6912 47.3141 23.7678C47.336 23.8116 47.3563 23.8553 47.3782 23.8975C47.4094 23.9631 47.4422 24.0272 47.4735 24.0928C47.4954 24.1397 47.5188 24.1881 47.5407 24.235C47.5688 24.2959 47.5985 24.3584 47.6266 24.4194C47.6485 24.4694 47.6719 24.5178 47.6938 24.5678C47.7204 24.6272 47.7469 24.6881 47.7735 24.7475C47.7954 24.7975 47.8172 24.8491 47.8391 24.899C47.8641 24.9584 47.8891 25.0178 47.9141 25.0772C47.936 25.1287 47.9563 25.1787 47.9782 25.2303C48.0032 25.2897 48.0266 25.3491 48.05 25.4084C48.0704 25.4584 48.0907 25.51 48.111 25.56C48.1344 25.6209 48.1579 25.6803 48.1813 25.7412C48.2 25.7912 48.2204 25.8397 48.2391 25.8897C48.2626 25.9537 48.286 26.0162 48.3094 26.0787C48.3266 26.1241 48.3438 26.1709 48.361 26.2162C48.3907 26.2975 48.4188 26.3772 48.4485 26.4584C48.4688 26.5131 48.4875 26.5694 48.5063 26.6241C48.5329 26.7022 48.561 26.7803 48.5875 26.8584C48.6032 26.9053 48.6188 26.9506 48.6344 26.9975C48.6547 27.0584 48.675 27.1194 48.6954 27.1803C48.711 27.2303 48.7266 27.2787 48.7422 27.3287C48.761 27.3866 48.7782 27.4428 48.7969 27.4991C48.8125 27.549 48.8282 27.5991 48.8438 27.6491C48.861 27.7037 48.8782 27.76 48.8938 27.8147C48.9094 27.8647 48.9235 27.9147 48.9376 27.9631C48.9532 28.0178 48.9704 28.0725 48.986 28.1272C49 28.1772 49.0141 28.2256 49.0282 28.2741C49.0438 28.3272 49.0579 28.3819 49.0735 28.435C49.0876 28.4834 49.1 28.5319 49.1141 28.5803C49.1297 28.635 49.1438 28.6881 49.1579 28.7412C49.1704 28.7881 49.1829 28.8334 49.1954 28.8787C49.211 28.935 49.2251 28.9912 49.2391 29.0475C49.25 29.0897 49.261 29.1319 49.2719 29.1725C49.2875 29.2366 49.3032 29.2991 49.3188 29.3631C49.3266 29.3959 49.336 29.4287 49.3438 29.4616C49.3672 29.5553 49.3891 29.6475 49.411 29.7397C49.4188 29.7725 49.4266 29.8053 49.4344 29.8381C49.4485 29.8975 49.4626 29.9569 49.4751 30.0162C49.4844 30.0537 49.4922 30.0912 49.5 30.1287C49.5125 30.1819 49.5235 30.235 49.536 30.2866C49.5438 30.3256 49.5532 30.3631 49.561 30.4006C49.5719 30.4491 49.5829 30.4991 49.5922 30.5459C49.6001 30.585 49.6079 30.6241 49.6172 30.6616C49.6266 30.7084 49.636 30.7553 49.6454 30.8006C49.6532 30.8381 49.661 30.8756 49.6672 30.9116C49.6766 30.9569 49.686 31.0022 49.6938 31.0459C49.7001 31.0819 49.7079 31.1178 49.7141 31.1522C49.7235 31.1975 49.7313 31.2428 49.7391 31.2866C49.7454 31.3194 49.7516 31.3506 49.7579 31.3834C49.7672 31.4303 49.775 31.4756 49.7829 31.5209C49.7875 31.5491 49.7938 31.5772 49.7985 31.6037C49.8079 31.6553 49.8172 31.7053 49.8251 31.7553C49.8282 31.7756 49.8329 31.7959 49.836 31.8162C49.8485 31.885 49.8594 31.9522 49.8704 32.0178C49.5766 32.2569 49.286 32.4991 48.9985 32.7444C48.6813 33.0147 48.3672 33.2881 48.0579 33.5647C47.5829 33.9881 47.1172 34.4178 46.6594 34.8553C46.1469 35.3444 45.6469 35.8428 45.1579 36.349C44.5641 36.9631 43.986 37.5881 43.4297 38.2225C41.7579 40.1319 40.2266 42.1678 38.8813 44.2741C38.6735 44.5991 38.4704 44.9256 38.2704 45.2569C38.2032 45.3662 38.1407 45.4772 38.075 45.5881C37.9422 45.81 37.811 46.0319 37.6813 46.2569C37.6657 46.2834 37.6485 46.31 37.6344 46.3381C37.6329 46.3366 37.6329 46.335 37.6313 46.335C37.6157 46.31 37.5985 46.285 37.5829 46.2584C37.5563 46.2162 37.5282 46.174 37.5 46.1319C37.4719 46.0881 37.4422 46.0428 37.4125 45.9991C37.3985 45.9787 37.386 45.9584 37.3719 45.9381C37.3547 45.9131 37.3375 45.8881 37.3219 45.8631C37.2891 45.8162 37.2563 45.7694 37.2235 45.7225C37.1938 45.6787 37.1625 45.6366 37.1313 45.5928C37.1282 45.5881 37.1235 45.5819 37.1204 45.5772C37.1157 45.5709 37.1125 45.5662 37.1079 45.56C37.0813 45.5225 37.0532 45.4865 37.0266 45.4491C36.9954 45.4053 36.9625 45.3615 36.9313 45.3178C36.9047 45.2819 36.8766 45.2444 36.8485 45.2084C36.8282 45.1819 36.8079 45.1553 36.7875 45.1272C36.7657 45.0975 36.7438 45.0678 36.7204 45.0397C36.6797 44.9881 36.6375 44.935 36.5969 44.8834C36.5641 44.8428 36.5329 44.8022 36.5 44.7616C36.4985 44.76 36.4969 44.7584 36.4954 44.7553C36.4422 44.6897 36.3875 44.6241 36.3313 44.5584C36.286 44.5037 36.2391 44.4491 36.1922 44.3944C36.1672 44.3647 36.1407 44.335 36.1141 44.3037C36.0844 44.2694 36.0547 44.235 36.0235 44.1991C35.986 44.1569 35.9485 44.1162 35.911 44.0741C35.8735 44.0319 35.8344 43.9897 35.7954 43.9475C35.7922 43.9444 35.7891 43.9412 35.786 43.9381C35.7797 43.9319 35.7735 43.9241 35.7672 43.9178C35.7266 43.8741 35.6844 43.8303 35.6422 43.785C35.5954 43.735 35.5469 43.685 35.4985 43.635C35.4735 43.6084 35.4469 43.5819 35.4204 43.5553C35.3969 43.5319 35.3735 43.5084 35.35 43.485C35.3063 43.4412 35.2625 43.3959 35.2172 43.3522C35.1719 43.3069 35.1235 43.2616 35.0766 43.2162C35.0454 43.1866 35.0157 43.1569 34.9844 43.1272C34.9813 43.1256 34.9797 43.1225 34.9766 43.1209C34.9594 43.1037 34.9407 43.0881 34.9235 43.0709C34.875 43.0256 34.8266 42.9819 34.7766 42.9366C34.7235 42.8881 34.6704 42.8397 34.6172 42.7928C34.5907 42.7694 34.5657 42.7459 34.5391 42.7225C34.5329 42.7162 34.525 42.71 34.5172 42.7037C34.5 42.6881 34.4829 42.6741 34.4657 42.6584C34.411 42.6116 34.3563 42.5631 34.3 42.5162C34.2485 42.4725 34.1954 42.4272 34.1422 42.3834C34.1188 42.3631 34.0954 42.3444 34.0719 42.3241C34.0704 42.3225 34.0672 42.3209 34.0657 42.3194C34.0344 42.2928 34 42.2678 33.9688 42.2412C33.9141 42.1975 33.861 42.1553 33.8047 42.1116C33.7454 42.0647 33.6844 42.0194 33.6235 41.9725C33.5985 41.9537 33.5735 41.935 33.5485 41.9147C33.5172 41.8912 33.4844 41.8678 33.4516 41.8428C33.3891 41.7959 33.3235 41.7506 33.2594 41.7037C33.2016 41.6631 33.1454 41.6225 33.0875 41.5819C33.0735 41.5725 33.0594 41.5616 33.0454 41.5522C33.0438 41.5506 33.0422 41.5491 33.0407 41.5491C32.9891 41.5131 32.936 41.4787 32.8829 41.4428C32.825 41.4037 32.7688 41.3647 32.7094 41.3256C32.6563 41.2912 32.6016 41.2569 32.5485 41.2225C32.511 41.1975 32.4735 41.174 32.4344 41.1506C32.3954 41.1256 32.3563 41.1006 32.3172 41.0772C32.2329 41.0256 32.1469 40.9741 32.061 40.9241C32.011 40.8944 31.961 40.8631 31.911 40.835C31.9079 40.8334 31.9063 40.8319 31.9032 40.8303C31.9016 40.8303 31.9016 40.8287 31.9 40.8287C31.7657 40.7506 31.6297 40.6756 31.4922 40.6006C31.4657 40.5866 31.4391 40.5725 31.4125 40.5584C31.3938 40.5475 31.3735 40.5381 31.3547 40.5272C31.3079 40.5022 31.261 40.4787 31.2141 40.4537C31.161 40.4256 31.1094 40.3975 31.0547 40.3709C31 40.3428 30.9438 40.3178 30.8891 40.2897C30.8047 40.2491 30.7235 40.2069 30.6375 40.1662C30.8719 39.6866 31.1172 39.2084 31.3797 38.7334Z" fill="#4A3A26"/>
<path d="M55.8797 16.3585C56.1172 16.3585 56.3547 16.2819 56.5563 16.1241L56.6016 16.0882C57.075 15.7132 57.1547 15.0257 56.7797 14.5522C56.4047 14.0788 55.7156 13.9991 55.2438 14.3741L55.2031 14.4069C54.7281 14.7804 54.6469 15.4679 55.0203 15.9429C55.2359 16.2163 55.5563 16.3585 55.8797 16.3585Z" fill="#4A3A26"/>
<path d="M60.9547 21.5944C61.0141 21.6335 61.0781 21.6678 61.1438 21.696C61.2094 21.7225 61.2781 21.7428 61.3484 21.7585C61.4188 21.7725 61.4906 21.7788 61.5625 21.7788C61.85 21.7788 62.1328 21.6616 62.3359 21.4585C62.5391 21.2553 62.6562 20.9741 62.6562 20.685C62.6562 20.6147 62.6484 20.5428 62.6344 20.471C62.6203 20.4022 62.6 20.3335 62.5719 20.2663C62.5453 20.2007 62.5109 20.1382 62.4719 20.0788C62.4313 20.0178 62.3859 19.9616 62.3359 19.9116C62.0813 19.6585 61.7047 19.5413 61.3484 19.6132C61.2781 19.6272 61.2094 19.6475 61.1438 19.6757C61.0781 19.7022 61.0141 19.7366 60.9547 19.7757C60.8953 19.8163 60.8391 19.8616 60.7891 19.9116C60.7391 19.9616 60.6922 20.0178 60.6531 20.0788C60.6141 20.1382 60.5797 20.2007 60.5516 20.2663C60.525 20.3335 60.5047 20.4022 60.4906 20.471C60.475 20.5428 60.4688 20.6147 60.4688 20.685C60.4688 20.9741 60.5859 21.2553 60.7891 21.4585C60.8391 21.5085 60.8953 21.5553 60.9547 21.5944Z" fill="#4A3A26"/>
</svg>
