<svg width="40" height="31" viewBox="0 0 40 31" fill="none" xmlns="http://www.w3.org/2000/svg">
<path d="M34.6667 15.5C34.6667 23.789 28.015 30.5 19.8202 30.5C11.6253 30.5 4.97363 23.789 4.97363 15.5C4.97363 7.21103 11.6253 0.5 19.8202 0.5C28.015 0.5 34.6667 7.21103 34.6667 15.5Z" fill="#F2DEAA" stroke="#4A3A26"/>
<path d="M0.391113 18.5254H5.23739L7.1557 23.9029L5 23.5L2.5 22L0.391113 18.5254Z" fill="#F2DEAA"/>
<path d="M34.6615 18.7706L39.2049 18.7706L38.0943 21.3012L34.6615 23.3673L32.7432 23.621L34.6615 18.7706Z" fill="#F2DEAA"/>
<path d="M36.3647 18.8096H33.9464H31.2593L30.7219 23.706L32.7746 23.8254H32.9089L36.3647 18.8096Z" fill="#F2DEAA"/>
<path d="M5 18.5H9V23.5H6.5L5 18.5Z" fill="#F2DEAA"/>
<path d="M16.5886 24.6613V24.6613C15.2079 26.1032 12.9443 23.2864 10.9523 23.4188L7.41517 23.6539C4.95381 23.8175 2.62965 22.5064 1.49665 20.3152L0.63623 18.6511H20.0718" stroke="#4A3A26" stroke-width="0.5"/>
<path d="M23.4061 24.6613V24.6613C24.7868 26.1032 27.0504 23.2864 29.0423 23.4188L32.5795 23.6539C35.0408 23.8175 37.365 22.5064 38.498 20.3152L39.3584 18.6511H19.9228" stroke="#4A3A26" stroke-width="0.5"/>
<path d="M20.0666 18.5611C18.7485 18.5607 17.2299 18.2983 15.4075 17.876C13.5851 17.4536 12.0661 16.2149 9.13027 16.3977C6.19441 16.5804 4.2715 18.6614 4.2715 18.6614" stroke="#4A3A26" stroke-width="0.5"/>
<path d="M19.928 18.5611C21.2461 18.5607 22.7647 18.2983 24.5871 17.876C26.4095 17.4536 27.9285 16.2149 30.8644 16.3977C33.8002 16.5804 35.7231 18.6614 35.7231 18.6614" stroke="#4A3A26" stroke-width="0.5"/>
<path d="M20.0221 18.6511C18.9186 18.6419 16.4282 18.4121 14.0653 18.1239C13.3138 18.0322 12.4378 17.8825 11.5924 17.7209C9.32445 17.2874 6.97119 17.493 4.87755 18.4496V18.4496" stroke="#4A3A26" stroke-width="0.5"/>
<path d="M19.973 18.6511C21.0765 18.6419 23.5669 18.4121 25.9298 18.1239C26.6813 18.0322 27.5574 17.8825 28.4027 17.7209C30.6707 17.2874 33.0239 17.493 35.1176 18.4496V18.4496" stroke="#4A3A26" stroke-width="0.5"/>
<ellipse cx="19.9895" cy="18.5619" rx="1.52223" ry="1.19231" fill="#4A3A26"/>
<ellipse cx="19.9903" cy="18.5618" rx="1.14167" ry="0.794872" fill="#F2DEAA"/>
<path d="M14.4382 20.9675C14.425 20.8435 14.3691 20.7469 14.2706 20.6778C14.1731 20.6086 14.0462 20.5741 13.8899 20.5741C13.7801 20.5741 13.6858 20.5906 13.6072 20.6238C13.5286 20.6569 13.4685 20.7019 13.4268 20.7587C13.3852 20.8155 13.3639 20.8804 13.3629 20.9533C13.3629 21.0139 13.3767 21.0665 13.4041 21.111C13.4325 21.1555 13.4709 21.1934 13.5192 21.2246C13.5675 21.2549 13.621 21.2805 13.6797 21.3013C13.7384 21.3222 13.7976 21.3397 13.8572 21.3539L14.13 21.4221C14.2398 21.4476 14.3454 21.4822 14.4467 21.5258C14.549 21.5693 14.6404 21.6243 14.7209 21.6905C14.8023 21.7568 14.8667 21.8368 14.9141 21.9306C14.9614 22.0243 14.9851 22.1342 14.9851 22.2601C14.9851 22.4306 14.9415 22.5807 14.8544 22.7104C14.7673 22.8392 14.6413 22.9401 14.4766 23.013C14.3127 23.085 14.1143 23.1209 13.8814 23.1209C13.6551 23.1209 13.4586 23.0859 13.2919 23.0158C13.1262 22.9457 12.9964 22.8435 12.9027 22.709C12.8099 22.5745 12.7597 22.4107 12.7521 22.2175H13.2706C13.2782 22.3189 13.3094 22.4031 13.3643 22.4704C13.4193 22.5376 13.4908 22.5878 13.5788 22.6209C13.6679 22.6541 13.7673 22.6707 13.8771 22.6707C13.9917 22.6707 14.0921 22.6536 14.1783 22.6195C14.2654 22.5845 14.3336 22.5362 14.3828 22.4746C14.4321 22.4121 14.4571 22.3392 14.4581 22.2559C14.4571 22.1801 14.4349 22.1176 14.3913 22.0684C14.3478 22.0182 14.2867 21.9765 14.2081 21.9434C14.1304 21.9093 14.0395 21.879 13.9354 21.8525L13.6044 21.7672C13.3648 21.7057 13.1754 21.6124 13.0362 21.4874C12.898 21.3615 12.8288 21.1943 12.8288 20.986C12.8288 20.8146 12.8752 20.6645 12.968 20.5357C13.0618 20.4069 13.1892 20.307 13.3501 20.236C13.5111 20.164 13.6934 20.128 13.897 20.128C14.1035 20.128 14.2843 20.164 14.4396 20.236C14.5959 20.307 14.7185 20.406 14.8075 20.5329C14.8965 20.6588 14.9425 20.8037 14.9453 20.9675H14.4382ZM15.4549 20.1678H16.0998L16.9634 22.2758H16.9975L17.8612 20.1678H18.506V23.0769H18.0004V21.0783H17.9734L17.1694 23.0684H16.7915L15.9876 21.0741H15.9606V23.0769H15.4549V20.1678ZM19.4535 23.0769H18.891L19.9151 20.1678H20.5657L21.5913 23.0769H21.0288L20.2518 20.7644H20.229L19.4535 23.0769ZM19.4719 21.9363H21.006V22.3596H19.4719V21.9363ZM21.9744 23.0769V20.1678H23.0653C23.2888 20.1678 23.4763 20.2066 23.6278 20.2843C23.7803 20.3619 23.8954 20.4708 23.973 20.611C24.0516 20.7502 24.0909 20.9126 24.0909 21.0982C24.0909 21.2848 24.0511 21.4467 23.9716 21.584C23.893 21.7204 23.777 21.826 23.6236 21.9008C23.4702 21.9746 23.2817 22.0116 23.0582 22.0116H22.2812V21.5741H22.9872C23.1179 21.5741 23.2249 21.5561 23.3082 21.5201C23.3916 21.4832 23.4531 21.4297 23.4929 21.3596C23.5336 21.2886 23.554 21.2014 23.554 21.0982C23.554 20.995 23.5336 20.9069 23.4929 20.834C23.4522 20.7601 23.3902 20.7043 23.3068 20.6664C23.2235 20.6276 23.116 20.6082 22.9844 20.6082H22.5014V23.0769H21.9744ZM23.4773 21.7587L24.1974 23.0769H23.6094L22.902 21.7587H23.4773ZM24.4482 20.6096V20.1678H26.7692V20.6096H25.87V23.0769H25.3473V20.6096H24.4482Z" fill="#3D2F27"/>
<path d="M16.6566 25.3344H17.1794V27.3799C17.1784 27.5674 17.1387 27.7289 17.0601 27.8643C16.9815 27.9987 16.8716 28.1024 16.7305 28.1753C16.5904 28.2473 16.427 28.2833 16.2405 28.2833C16.07 28.2833 15.9166 28.253 15.7802 28.1924C15.6448 28.1308 15.5373 28.0399 15.4578 27.9197C15.3782 27.7994 15.3385 27.6498 15.3385 27.4708H15.8626C15.8636 27.5494 15.8806 27.6171 15.9138 27.6739C15.9478 27.7307 15.9947 27.7743 16.0544 27.8046C16.114 27.8349 16.1827 27.8501 16.2603 27.8501C16.3446 27.8501 16.4161 27.8325 16.4748 27.7975C16.5335 27.7615 16.5781 27.7085 16.6084 27.6384C16.6396 27.5683 16.6557 27.4822 16.6566 27.3799V25.3344ZM20.3505 26.789C20.3505 27.1024 20.2918 27.3709 20.1744 27.5944C20.0579 27.8169 19.8988 27.9874 19.6971 28.1057C19.4964 28.2241 19.2686 28.2833 19.0139 28.2833C18.7592 28.2833 18.5309 28.2241 18.3292 28.1057C18.1285 27.9864 17.9694 27.8155 17.852 27.593C17.7355 27.3695 17.6772 27.1015 17.6772 26.789C17.6772 26.4755 17.7355 26.2075 17.852 25.985C17.9694 25.7615 18.1285 25.5906 18.3292 25.4722C18.5309 25.3539 18.7592 25.2947 19.0139 25.2947C19.2686 25.2947 19.4964 25.3539 19.6971 25.4722C19.8988 25.5906 20.0579 25.7615 20.1744 25.985C20.2918 26.2075 20.3505 26.4755 20.3505 26.789ZM19.8207 26.789C19.8207 26.5683 19.7861 26.3823 19.717 26.2307C19.6488 26.0783 19.5541 25.9632 19.4329 25.8856C19.3117 25.807 19.172 25.7677 19.0139 25.7677C18.8557 25.7677 18.7161 25.807 18.5949 25.8856C18.4736 25.9632 18.3785 26.0783 18.3093 26.2307C18.2412 26.3823 18.2071 26.5683 18.2071 26.789C18.2071 27.0096 18.2412 27.1962 18.3093 27.3486C18.3785 27.5002 18.4736 27.6152 18.5949 27.6938C18.7161 27.7715 18.8557 27.8103 19.0139 27.8103C19.172 27.8103 19.3117 27.7715 19.4329 27.6938C19.5541 27.6152 19.6488 27.5002 19.717 27.3486C19.7861 27.1962 19.8207 27.0096 19.8207 26.789ZM20.4858 25.3344H21.081L21.7927 26.6214H21.8211L22.5327 25.3344H23.1279L22.0696 27.1583V28.2435H21.5441V27.1583L20.4858 25.3344Z" fill="#3D2F27"/>
<ellipse cx="6.96652" cy="6.85374" rx="6.96652" ry="6.85374" transform="matrix(1 0 0 -1 12.5928 16.5255)" fill="#212426"/>
<path d="M21.306 8.021L20.7271 8.18435C20.6703 8.021 20.5898 7.87303 20.4857 7.74046C20.3815 7.60788 20.2454 7.50253 20.0773 7.42441C19.9116 7.34628 19.7056 7.30722 19.4594 7.30722C19.0901 7.30722 18.787 7.39481 18.5503 7.57C18.3135 7.74519 18.1952 7.97128 18.1952 8.24827C18.1952 8.48264 18.2757 8.67322 18.4367 8.82C18.6 8.96441 18.8509 9.07923 19.1895 9.16446L20.0134 9.36688C20.4703 9.47815 20.8124 9.65452 21.0396 9.896C21.2693 10.1375 21.3841 10.4405 21.3841 10.8051C21.3841 11.1129 21.2989 11.3863 21.1284 11.6254C20.958 11.8645 20.72 12.0527 20.4146 12.19C20.1116 12.325 19.76 12.3924 19.3599 12.3924C18.8273 12.3924 18.3881 12.2729 18.0425 12.0338C17.6968 11.7923 17.4755 11.4443 17.3784 10.9897L17.9857 10.8406C18.0638 11.1649 18.2165 11.41 18.4438 11.5757C18.6734 11.7414 18.9752 11.8243 19.3493 11.8243C19.7683 11.8243 20.1033 11.7307 20.3543 11.5437C20.6052 11.3543 20.7307 11.1176 20.7307 10.8335C20.7307 10.6133 20.6573 10.4287 20.5105 10.2795C20.3637 10.128 20.1412 10.0167 19.8429 9.94571L18.9516 9.73264C18.4781 9.61901 18.1277 9.43908 17.9004 9.19287C17.6732 8.94666 17.5595 8.64126 17.5595 8.27668C17.5595 7.97601 17.6412 7.71205 17.8045 7.48477C17.9679 7.25513 18.1928 7.07521 18.4793 6.945C18.7657 6.81479 19.0924 6.74969 19.4594 6.74969C19.9589 6.74969 20.3578 6.86333 20.6561 7.0906C20.9568 7.3155 21.1734 7.62564 21.306 8.021Z" fill="#F2DEAA"/>
</svg>
