<svg width="80" height="81" viewBox="0 0 80 81" fill="none" xmlns="http://www.w3.org/2000/svg">
<path d="M49.4576 26.0186C49.3732 25.7659 49.2118 25.5459 48.9959 25.3894C48.78 25.2329 48.5204 25.1477 48.2536 25.1458H41.9548L40.0157 19.1756C39.9324 18.9225 39.7711 18.7022 39.5549 18.546C39.3387 18.3898 39.0786 18.3057 38.8117 18.3057C38.5448 18.3057 38.2847 18.3898 38.0685 18.546C37.8523 18.7022 37.6911 18.9225 37.6077 19.1756L35.6687 25.1458H29.3699C29.103 25.1477 28.8435 25.2329 28.6276 25.3894C28.4117 25.5459 28.2502 25.7659 28.1659 26.0186C28.0817 26.2737 28.0817 26.5491 28.1662 26.8041C28.2506 27.0592 28.4149 27.2804 28.6348 27.4353L33.7169 31.1287L31.7779 37.0989C31.6942 37.3529 31.6932 37.6268 31.7752 37.8813C31.8572 38.1358 32.0178 38.3579 32.2341 38.5156C32.4528 38.6699 32.714 38.7528 32.9819 38.7528C33.2497 38.7528 33.5109 38.6699 33.7296 38.5156L38.8117 34.8222L43.8938 38.5156C44.1144 38.6665 44.3742 38.75 44.6416 38.7559C44.9096 38.7539 45.1705 38.67 45.3893 38.5156C45.6056 38.3579 45.7663 38.1358 45.8483 37.8813C45.9302 37.6268 45.9293 37.3529 45.8456 37.0989L43.9065 31.1287L48.9886 27.4353C49.2086 27.2804 49.3729 27.0592 49.4573 26.8041C49.5417 26.5491 49.5418 26.2737 49.4576 26.0186ZM41.676 29.6235C41.4583 29.7803 41.2958 30.0017 41.2116 30.256C41.1274 30.5104 41.1258 30.7848 41.207 31.0402L42.2336 34.1771L39.5595 32.2292C39.3416 32.0729 39.08 31.9888 38.8117 31.9888C38.5434 31.9888 38.2819 32.0729 38.064 32.2292L35.3898 34.1771L36.4164 31.0402C36.4976 30.7848 36.496 30.5104 36.4118 30.256C36.3276 30.0017 36.1651 29.7803 35.9475 29.6235L33.2734 27.6756H36.5812C36.8489 27.6772 37.11 27.5933 37.3266 27.4363C37.5432 27.2793 37.7039 27.0574 37.7852 26.8028L38.8117 23.6659L39.8383 26.8028C39.9196 27.0574 40.0802 27.2793 40.2968 27.4363C40.5134 27.5933 40.7746 27.6772 41.0423 27.6756H44.3501L41.676 29.6235Z" fill="#4A3A26"/>
<path d="M38.8118 12.9775C34.4851 12.9763 30.3253 14.6433 27.2008 17.6304C24.0763 20.6175 22.2287 24.6937 22.0439 29.008C21.8591 33.3223 23.3513 37.541 26.2089 40.7834C29.0666 44.0257 33.0687 46.041 37.3797 46.4083C37.8613 46.4463 38.3302 46.4716 38.8118 46.4716C39.2427 46.4716 39.6863 46.4463 40.1172 46.4083H40.2439V46.3957C44.5533 46.0284 48.5539 44.0138 51.4104 40.7727C54.2669 37.5315 55.7585 33.3143 55.5737 29.0017C55.3889 24.689 53.542 20.6144 50.4186 17.6285C47.2952 14.6426 43.1369 12.9763 38.8118 12.9775ZM51.2446 36.6561C51.2413 36.6561 51.2381 36.6574 51.2357 36.6598C51.2333 36.6622 51.232 36.6654 51.232 36.6688C50.0983 38.6965 48.4823 40.4147 46.5263 41.672C44.5703 42.9294 42.3345 43.6871 40.0158 43.8786L40.0031 43.8912H39.9905C39.1979 43.9691 38.3995 43.9649 37.6078 43.8786C34.5443 43.618 31.6475 42.3749 29.3505 40.3349C27.0536 38.295 25.4799 35.5678 24.8647 32.5612C24.2496 29.5546 24.626 26.4301 25.9376 23.6547C27.2493 20.8793 29.4258 18.6021 32.1418 17.1637C34.8577 15.7252 37.9672 15.2027 41.0054 15.6743C44.0435 16.1459 46.8471 17.5863 48.997 19.78C51.1469 21.9738 52.5277 24.8031 52.9328 27.845C53.3379 30.8869 52.7457 33.978 51.2446 36.6561Z" fill="#4A3A26"/>
<path d="M72.8784 66.6973L68.1132 59.323C64.704 54.0738 61.299 48.8161 57.8982 43.55C58.1644 43.4488 58.4685 43.3349 58.7727 43.2337C59.4596 43.0964 60.1123 42.8245 60.6932 42.4337C61.274 42.0429 61.7714 41.541 62.1566 40.957C62.3719 40.2966 62.4548 39.6003 62.4004 38.908C62.3461 38.2157 62.1555 37.5408 61.8397 36.922C61.5418 36.2746 61.3821 35.5725 61.3708 34.8602C61.6847 34.2514 62.1204 33.7133 62.6508 33.2791C63.215 32.8527 63.6891 32.3192 64.0458 31.7092C64.4025 31.0992 64.6348 30.4248 64.7293 29.7248C64.6362 29.0262 64.4044 28.3531 64.0476 27.745C63.6907 27.1369 63.2158 26.6059 62.6508 26.1832C62.1223 25.7421 61.6871 25.2003 61.3708 24.5894C61.3821 23.8771 61.5418 23.175 61.8397 22.5276C62.1553 21.911 62.3457 21.2383 62.4001 20.548C62.4545 19.8578 62.3717 19.1636 62.1566 18.5053C61.7703 17.9223 61.2726 17.4211 60.692 17.0304C60.1113 16.6397 59.4591 16.3672 58.7727 16.2285C58.0901 16.0562 57.4484 15.751 56.8843 15.3305C56.6039 14.6868 56.449 13.9956 56.4281 13.294C56.4472 12.5969 56.3283 11.9029 56.0782 11.2518C55.8281 10.6006 55.4517 10.0051 54.9706 9.49937C53.7593 8.78765 52.315 8.58304 50.9531 8.93018C50.2633 9.07228 49.5517 9.07228 48.8619 8.93018C48.3311 8.48635 47.8957 7.93993 47.5819 7.32378C47.2937 6.6783 46.8797 6.09649 46.3641 5.61224C45.8484 5.12798 45.2413 4.75095 44.5783 4.5031C43.8916 4.44418 43.2001 4.52111 42.5433 4.72949C41.8865 4.93786 41.2774 5.27357 40.7508 5.71738C40.1752 6.15527 39.515 6.46964 38.8118 6.64074C38.1086 6.46964 37.4484 6.15527 36.8727 5.71738C36.3481 5.27455 35.7411 4.93936 35.0865 4.73099C34.4319 4.52262 33.7426 4.44518 33.058 4.5031C32.3921 4.74877 31.7823 5.12488 31.2643 5.60929C30.7463 6.0937 30.3306 6.67664 30.0416 7.32378C29.7274 7.9361 29.297 8.48166 28.7743 8.93018C28.0802 9.07208 27.3645 9.07208 26.6705 8.93018C25.3127 8.58287 23.8723 8.78759 22.6656 9.49937C22.1791 10.0045 21.7986 10.6014 21.5461 11.2552C21.2937 11.9089 21.1745 12.6064 21.1955 13.3067C21.1825 14.0066 21.0228 14.696 20.7265 15.3305C20.174 15.7517 19.5395 16.0533 18.8635 16.2159C17.474 16.4963 16.2526 17.315 15.467 18.4927C15.2516 19.153 15.1688 19.8493 15.2231 20.5416C15.2775 21.234 15.468 21.9088 15.7838 22.5276C16.0817 23.175 16.2414 23.8771 16.2527 24.5894C15.9364 25.2003 15.5012 25.7421 14.9727 26.1832C14.4077 26.6059 13.9329 27.1369 13.576 27.745C13.2191 28.3531 12.9873 29.0262 12.8942 29.7248C12.9887 30.4248 13.221 31.0992 13.5777 31.7092C13.9345 32.3192 14.4085 32.8527 14.9727 33.2791C15.5032 33.7133 15.9388 34.2514 16.2527 34.8602C16.2414 35.5725 16.0817 36.2746 15.7838 36.922C15.4683 37.5386 15.2778 38.2114 15.2235 38.9016C15.1691 39.5919 15.2518 40.2861 15.467 40.9443C15.8502 41.5301 16.347 42.0333 16.9281 42.4243C17.5093 42.8154 18.1631 43.0863 18.8508 43.2211C19.1423 43.3349 19.4465 43.4361 19.7253 43.55C16.3161 48.8119 12.9111 54.0696 9.51038 59.323L4.7451 66.6973C4.60765 66.9039 4.53539 67.1469 4.53765 67.3949C4.53991 67.6429 4.61658 67.8846 4.75778 68.0887C4.89547 68.2927 5.09021 68.4518 5.3178 68.5463C5.54538 68.6407 5.79576 68.6663 6.03781 68.6199L14.6939 67.0135L16.7977 75.5641C16.8588 75.803 16.9885 76.0189 17.1709 76.1852C17.3533 76.3514 17.5804 76.4609 17.8243 76.5001C17.8909 76.5147 17.9588 76.5232 18.0271 76.5254C18.2394 76.5268 18.4487 76.4741 18.635 76.3723C18.8213 76.2705 18.9784 76.1229 19.0916 75.9436L32.7538 54.8327C32.8552 54.858 32.9439 54.9212 33.0453 54.9465C33.2529 54.996 33.4655 55.0214 33.679 55.0224C34.8424 54.8944 35.9477 54.4479 36.8727 53.7323C37.4484 53.2944 38.1086 52.98 38.8118 52.8089C39.515 52.98 40.1752 53.2944 40.7508 53.7323C41.2777 54.1796 41.8888 54.5174 42.5482 54.7259C43.2076 54.9344 43.9021 55.0094 44.5909 54.9465C44.6923 54.9212 44.781 54.858 44.8698 54.8327L58.5319 75.9436C58.6451 76.1229 58.8023 76.2705 58.9886 76.3723C59.1749 76.4741 59.3841 76.5268 59.5965 76.5254C59.6647 76.5232 59.7326 76.5147 59.7993 76.5001C60.0432 76.4609 60.2703 76.3514 60.4527 76.1852C60.635 76.0189 60.7648 75.803 60.8258 75.5641L62.9297 67.0135L71.5857 68.6199C71.8277 68.665 72.0777 68.6388 72.305 68.5444C72.5323 68.4501 72.7272 68.2917 72.8658 68.0887C73.007 67.8846 73.0836 67.6429 73.0859 67.3949C73.0882 67.1469 73.0159 66.9039 72.8784 66.6973ZM18.5593 72.0983L16.8738 65.2553C16.798 64.9414 16.6049 64.6683 16.3339 64.4919C16.0629 64.3155 15.7346 64.2493 15.4163 64.3067L8.47115 65.5968L11.6395 60.7017C14.808 55.794 17.9848 50.8863 21.1701 45.9785C21.1839 46.0367 21.1924 46.096 21.1955 46.1556C21.1764 46.8527 21.2953 47.5467 21.5454 48.1979C21.7955 48.849 22.1718 49.4445 22.6529 49.9503C23.8645 50.6613 25.3085 50.8659 26.6705 50.5195C27.3602 50.3773 28.0718 50.3773 28.7616 50.5195C29.2955 50.9604 29.7314 51.5074 30.0416 52.1259C30.2824 52.4927 30.5232 52.8595 30.7767 53.2137L18.5593 72.0983ZM44.3882 52.227C44.2857 52.3431 44.1547 52.4303 44.008 52.48C43.6531 52.5559 42.7152 51.9867 42.1069 51.5946C41.154 50.8561 40.0121 50.4003 38.8118 50.2791C37.6115 50.4003 36.4695 50.8561 35.5166 51.5946C34.9083 51.9867 33.9705 52.5686 33.6283 52.4927C33.4729 52.4333 33.3339 52.3379 33.2227 52.2144C32.8302 51.776 32.4861 51.2968 32.1962 50.7851C31.6717 49.7411 30.8693 48.8614 29.8769 48.2427C29.3008 47.9809 28.6719 47.8554 28.0392 47.8759C27.488 47.8865 26.938 47.9288 26.3916 48.0023C25.6059 48.0909 24.5413 48.2174 24.2371 47.977C23.933 47.7367 23.8062 46.6616 23.7175 45.8773C23.7021 44.6929 23.3553 43.5363 22.7163 42.5381C22.6154 42.4118 22.5007 42.2972 22.3741 42.1965C22.3257 42.1556 22.275 42.1176 22.222 42.0827L22.2093 42.0701H22.1967C21.439 41.517 20.5895 41.1017 19.6873 40.8431C18.9395 40.5775 17.9257 40.2233 17.7482 39.8439C17.5708 39.4897 17.9257 38.4904 18.1791 37.7568C18.6868 36.6811 18.8759 35.483 18.7241 34.3037C18.3519 33.1959 17.6704 32.2172 16.7597 31.483C16.2021 30.9265 15.429 30.1549 15.429 29.7248C15.429 29.2948 16.2021 28.5232 16.7597 27.9666C17.6704 27.2324 18.3519 26.2538 18.7241 25.146C18.8759 23.9666 18.6868 22.7685 18.1791 21.6928C17.9257 20.9592 17.5708 19.9599 17.7482 19.5931C17.9257 19.2263 18.9522 18.8721 19.7 18.6065C20.8424 18.3384 21.8845 17.7504 22.7036 16.9116C23.3521 15.9217 23.7038 14.7675 23.7175 13.5849C23.8062 12.8007 23.9203 11.7382 24.2371 11.4852C24.554 11.2323 25.6059 11.3587 26.3916 11.4473C27.553 11.6942 28.7605 11.6109 29.8769 11.207C30.8723 10.5918 31.6756 9.71119 32.1962 8.66455C32.6144 7.98152 33.1974 7.05815 33.6156 6.96961C33.9705 6.88107 34.9083 7.47557 35.5166 7.85503C36.4695 8.59351 37.6115 9.04938 38.8118 9.17051C40.0121 9.04938 41.154 8.59351 42.1069 7.85503C42.7152 7.47557 43.6404 6.89372 44.008 6.96961C44.4262 7.05815 45.0092 7.98152 45.4274 8.66455C45.948 9.71119 46.7513 10.5918 47.7467 11.207C48.863 11.6109 50.0705 11.6942 51.2319 11.4473C52.0177 11.3587 53.0823 11.2323 53.3864 11.4726C53.6906 11.7129 53.8173 12.7881 53.906 13.5723C53.9215 14.7568 54.2683 15.9133 54.9073 16.9116C55.7385 17.7504 56.7873 18.3416 57.9363 18.6192C58.684 18.8721 59.6979 19.2263 59.8753 19.6058C60.0527 19.9599 59.6979 20.9592 59.4444 21.6928C58.9367 22.7685 58.7477 23.9666 58.8995 25.146C59.2716 26.2538 59.9532 27.2324 60.8639 27.9666C61.4215 28.5232 62.1946 29.2948 62.1946 29.7248C62.1946 30.1549 61.4215 30.9265 60.8639 31.483C59.9532 32.2172 59.2716 33.1959 58.8995 34.3037C58.7477 35.483 58.9367 36.6811 59.4444 37.7568C59.6979 38.4904 60.0527 39.4897 59.8753 39.8565C59.6979 40.2233 58.6713 40.5901 57.9363 40.8431C56.9872 41.1019 56.0967 41.5399 55.3128 42.1333C55.1723 42.2587 55.041 42.3939 54.9199 42.5381C54.2715 43.528 53.9198 44.6821 53.906 45.8647C53.8173 46.6489 53.7033 47.7114 53.3864 47.9644C53.0696 48.2174 52.0177 48.0909 51.2319 48.0023C50.071 47.7491 48.8617 47.8325 47.7467 48.2427C46.7543 48.8614 45.9518 49.7411 45.4274 50.7851C45.1345 51.302 44.786 51.7855 44.3882 52.227ZM62.2073 64.3067C61.8889 64.2493 61.5606 64.3155 61.2896 64.4919C61.0187 64.6683 60.8255 64.9414 60.7498 65.2553L59.0642 72.0983L46.8468 53.2137C47.1003 52.8595 47.3411 52.4927 47.5819 52.1259C47.8925 51.5112 48.3235 50.965 48.8493 50.5195C49.5433 50.3776 50.259 50.3776 50.9531 50.5195C52.3109 50.8668 53.7513 50.662 54.958 49.9503C55.4433 49.4469 55.8232 48.8521 56.0757 48.2006C56.3281 47.5491 56.4479 46.8539 56.4281 46.1556C56.4303 46.0959 56.4388 46.0365 56.4534 45.9785C59.6345 50.8863 62.8114 55.794 65.984 60.7017L69.1524 65.5968L62.2073 64.3067Z" fill="#4A3A26"/>
</svg>
