<svg width="80" height="81" viewBox="0 0 80 81" fill="none" xmlns="http://www.w3.org/2000/svg">
<path d="M67.9332 12.4853L53.3332 7.61865C53.3332 11.1549 51.9285 14.5463 49.428 17.0467C46.9275 19.5472 43.5361 20.952 39.9999 20.952C36.4637 20.952 33.0723 19.5472 30.5718 17.0467C28.0713 14.5463 26.6666 11.1549 26.6666 7.61865L12.0666 12.4853C10.5578 12.988 9.27848 14.0134 8.4594 15.3765C7.64033 16.7396 7.33548 18.3505 7.59989 19.9187L9.53322 31.4853C9.66014 32.2684 10.0622 32.9805 10.667 33.4937C11.2719 34.0069 12.04 34.2876 12.8332 34.2853H19.9999V67.6187C19.9999 71.2853 22.9999 74.2853 26.6666 74.2853H53.3332C55.1013 74.2853 56.797 73.5829 58.0473 72.3327C59.2975 71.0825 59.9999 69.3868 59.9999 67.6187V34.2853H67.1666C67.9598 34.2876 68.7279 34.0069 69.3328 33.4937C69.9376 32.9805 70.3396 32.2684 70.4666 31.4853L72.3999 19.9187C72.6643 18.3505 72.3595 16.7396 71.5404 15.3765C70.7213 14.0134 69.4419 12.988 67.9332 12.4853Z" stroke="#4A3A26" stroke-width="3" stroke-linecap="round" stroke-linejoin="round"/>
</svg>
